Coordinates
version=1
nRows=8
nColumns=63
inDegrees=yes

Units are S.I. units (second, meters, Newtons, ...)
If the header above contains a line with 'inDegrees', this indicates whether rotational values are in degrees (yes) or radians (no).

endheader
time	pelvis_tilt	pelvis_list	pelvis_rotation	pelvis_tx	pelvis_ty	pelvis_tz	hip_flexion_r	hip_adduction_r	hip_rotation_r	knee_angle_r	knee_angle_r_beta	ankle_angle_r	subtalar_angle_r	mtp_angle_r	hip_flexion_l	hip_adduction_l	hip_rotation_l	knee_angle_l	knee_angle_l_beta	ankle_angle_l	subtalar_angle_l	mtp_angle_l	L5_S1_Flex_Ext	L5_S1_Lat_Bending	L5_S1_axial_rotation	L4_L5_Flex_Ext	L4_L5_Lat_Bending	L4_L5_axial_rotation	L3_L4_Flex_Ext	L3_L4_Lat_Bending	L3_L4_axial_rotation	L2_L3_Flex_Ext	L2_L3_Lat_Bending	L2_L3_axial_rotation	L1_L2_Flex_Ext	L1_L2_Lat_Bending	L1_L2_axial_rotation	L1_T12_Flex_Ext	L1_T12_Lat_Bending	L1_T12_axial_rotation	Abs_r3	Abs_r2	Abs_r1	Abs_t1	Abs_t2	neck_flexion	neck_bending	neck_rotation	arm_flex_r	arm_add_r	arm_rot_r	elbow_flex_r	pro_sup_r	wrist_flex_r	wrist_dev_r	arm_flex_l	arm_add_l	arm_rot_l	elbow_flex_l	pro_sup_l	wrist_flex_l	wrist_dev_l
      0.00000000	      1.08185732	     -5.19999502	     95.97425288	      0.15206638	      0.98748890	      0.48551123	     -2.97213494	      2.09205843	    -22.66768620	      9.78521622	      0.17078424	     26.28412294	     15.25038051	      0.00000000	     -0.74165495	     -3.09707811	      4.35383231	      8.30120907	      0.14488343	     25.95768673	     12.02093661	      0.00000000	     -0.03544766	      0.09794721	     -1.47387440	     -0.06582985	      0.13026979	     -1.56599155	     -0.05823696	      0.23814884	     -1.56599155	     -0.04051313	      0.23814884	     -1.28964010	     -0.03291670	      0.19973395	     -1.19752295	     -0.02025479	      0.15172022	     -1.10540580	     -0.25319908	      1.10799840	     -8.19724725	      0.00000000	      0.00000000	     20.51674523	      4.64736921	      2.25568397	     22.68440515	     -8.08229379	     62.00451836	     41.42148178	     20.88474565	     -3.69084910	     17.04747972	     22.58059217	     -1.20237248	     56.53715882	     40.24584781	     88.85656362	     -2.12700272	      0.56116174
      0.01694915	      1.12318280	     -5.47818874	     94.89241830	      0.15319582	      0.98643608	      0.48740851	     -2.38930935	      2.02599175	    -20.50068593	      9.93824251	      0.17345505	     27.29372152	     14.05863687	      0.00000000	     -0.73891744	     -2.83588593	      5.62140714	      7.90558905	      0.13797856	     26.78788177	      8.94893952	      0.00000000	     -0.03060782	      0.11498316	     -1.24582134	     -0.05684179	      0.15292760	     -1.32368518	     -0.05028559	      0.27957005	     -1.32368518	     -0.03498168	      0.27957005	     -1.09009367	     -0.02842242	      0.23447366	     -1.01222984	     -0.01748931	      0.17810891	     -0.93436601	     -0.21862862	      1.30071249	     -6.92888455	      0.00000000	      0.00000000	     20.91615992	      4.54689005	      2.53818892	     22.86138350	     -8.30542497	     61.06967843	     41.12971352	     23.65912977	     -1.47127162	     18.04507452	     23.41105062	     -1.14137346	     59.09004415	     39.97569405	     88.94823744	     -3.11827863	      0.07254443
      0.03389831	      1.14590037	     -5.69174546	     94.06923945	      0.15418529	      0.98563061	      0.48883265	     -1.96458848	      1.99821174	    -18.80029604	     10.00062285	      0.17454380	     27.99257286	     13.14419712	      0.00000000	     -0.69665447	     -2.71824471	      5.54872582	      7.61293645	      0.13287081	     27.37562497	      8.02974348	      0.00000000	     -0.03122226	      0.12615935	     -1.10073393	     -0.05798285	      0.16779194	     -1.16952980	     -0.05129505	      0.30674385	     -1.16952980	     -0.03568392	      0.30674385	     -0.96314219	     -0.02899299	      0.25726415	     -0.89434632	     -0.01784040	      0.19542084	     -0.82555044	     -0.22301746	      1.42713983	     -6.12195188	      0.00000000	      0.00000000	     21.31833714	      4.57451119	      2.89205248	     23.11056792	     -8.47264723	     60.90481949	     41.22207453	     25.06936989	     -1.16306488	     18.03742254	     23.71999171	     -1.18458813	     59.92146730	     40.13559863	     89.02977176	     -3.09088278	      0.48664782
      0.05084746	      1.14549067	     -5.96923777	     93.04268584	      0.15546931	      0.98492213	      0.49002073	     -1.43149609	      2.04678793	    -15.92196677	     10.09832488	      0.17624902	     28.29040484	     10.89423916	      0.00000000	     -0.57323635	     -2.61135645	      5.09961349	      7.37412594	      0.12870278	     27.63306355	      7.46570321	      0.00000000	     -0.01807016	      0.13500527	     -0.90133634	     -0.03355809	      0.17955702	     -0.95766986	     -0.02968746	      0.32825182	     -0.95766986	     -0.02065238	      0.32825182	     -0.78866930	     -0.01677995	      0.27530276	     -0.73233578	     -0.01032529	      0.20912317	     -0.67600225	     -0.12907333	      1.52720667	     -5.01296232	      0.00000000	      0.00000000	     21.80200385	      4.37899384	      3.07041506	     23.05557902	     -8.52548016	     59.68889063	     41.10651002	     26.75983866	     -0.12398285	     19.02501615	     24.11278617	     -1.09984711	     61.07917265	     39.95708581	     89.04714149	     -3.70862488	      0.16858814
      0.06779661	      1.07534421	     -6.15543733	     92.61087151	      0.15587126	      0.98454047	      0.49086642	     -1.10436137	      1.74626664	    -17.15228145	     10.30020620	      0.17977251	     28.88321269	     13.26529702	      0.00000000	     -0.42271836	     -2.44802061	      5.25578084	      7.21915156	      0.12599796	     27.54620458	      6.88563621	      0.00000000	     -0.01137622	      0.13158644	     -0.79654791	     -0.02112677	      0.17500996	     -0.84633215	     -0.01868998	      0.31993926	     -0.84633215	     -0.01300188	      0.31993926	     -0.69697942	     -0.01056395	      0.26833106	     -0.64719517	     -0.00650037	      0.20382739	     -0.59741093	     -0.08125917	      1.48853208	     -4.43016049	      0.00000000	      0.00000000	     22.16034735	      4.37124075	      3.06139243	     22.82454939	     -8.60666938	     58.60899826	     41.18612339	     28.18798780	      0.14904100	     18.71396498	     24.49775601	     -1.01220897	     62.35371265	     39.74312106	     89.04104269	     -4.71120502	     -0.25083315
      0.08474576	      1.01189260	     -6.34352978	     92.21399618	      0.15646429	      0.98424950	      0.49151081	     -0.81740978	      1.67030265	    -16.50823825	     10.32991329	      0.18029100	     29.02117551	     13.06989246	      0.00000000	     -0.16888629	     -2.42722207	      3.88547407	      7.25286681	      0.12658641	     27.63303466	      8.44928114	      0.00000000	     -0.00120761	      0.12841410	     -0.75174310	     -0.00224264	      0.17079075	     -0.79872705	     -0.00198397	      0.31222604	     -0.79872705	     -0.00138017	      0.31222604	     -0.65777522	     -0.00112138	      0.26186203	     -0.61079127	     -0.00069003	      0.19891344	     -0.56380733	     -0.00862580	      1.45264596	     -4.18096962	      0.00000000	      0.00000000	     22.49736224	      4.31720623	      3.31306160	     22.94740939	     -8.60927637	     58.75947789	     41.29179701	     28.52280314	     -0.45908478	     18.18854154	     24.28094311	     -1.07923113	     61.66744760	     39.91609523	     89.05204639	     -4.43674672	     -0.07637601
      0.10169492	      0.89606442	     -6.47328302	     91.90130288	      0.15697188	      0.98413205	      0.49190938	     -0.61631856	      1.51714704	    -16.35757213	     10.38300277	      0.18121758	     29.14515838	     13.38017915	      0.00000000	     -0.01533626	     -2.29639111	      3.61956804	      7.24055841	      0.12637158	     27.49356631	      8.61243176	      0.00000000	      0.00502923	      0.11480803	     -0.70957672	      0.00933978	      0.15269468	     -0.75392527	      0.00826252	      0.27914424	     -0.75392527	      0.00574790	      0.27914424	     -0.62087963	      0.00467014	      0.23411653	     -0.57653109	      0.00287370	      0.17783763	     -0.53218254	      0.03592327	      1.29873137	     -3.94645286	      0.00000000	      0.00000000	     22.76542765	      4.34407576	      3.30917670	     22.88675103	     -8.66613386	     58.74405394	     41.58168727	     28.44275321	     -1.41428358	     17.42049845	     24.10734336	     -1.15494608	     61.17868297	     40.10140696	     89.03080440	     -4.15990716	      0.26254707
      0.11864407	      0.78019821	     -6.55602234	     91.83787208	      0.15734031	      0.98415745	      0.49214540	     -0.51822468	      1.41291966	    -16.27918751	     10.38799246	      0.18130467	     29.14939274	     13.38762590	      0.00000000	      0.20393123	     -2.25686096	      2.61291235	      7.42379150	      0.12956960	     27.55892372	     10.13894224	      0.00000000	      0.00936713	      0.09838404	     -0.71820293	      0.01739570	      0.13085077	     -0.76309061	      0.01538926	      0.23921095	     -0.76309061	      0.01070569	      0.23921095	     -0.62842756	      0.00869832	      0.20062473	     -0.58353988	      0.00535238	      0.15239688	     -0.53865220	      0.06690848	      1.11293993	     -3.99442922	      0.00000000	      0.00000000	     22.91063556	      4.41931274	      3.36372185	     22.81091505	     -8.66695634	     58.81008520	     41.80609338	     28.78183016	     -2.13684125	     16.49214842	     23.74950784	     -1.25524039	     60.16804093	     40.36588977	     88.99417124	     -3.35218940	      0.75783561
